<svg width="29" height="29" viewBox="0 0 29 29" fill="none" xmlns="http://www.w3.org/2000/svg">
<path d="M15.6125 6.84985H5.88749C3.74999 6.84985 2 8.59984 2 10.7373V24.9374C2 26.7499 3.3 27.5249 4.8875 26.6374L9.79999 23.8999C10.325 23.6124 11.175 23.6124 11.6875 23.8999L16.6 26.6374C18.1875 27.5249 19.4875 26.7499 19.4875 24.9374V10.7373C19.5 8.59984 17.75 6.84985 15.6125 6.84985Z" stroke="#292D32" stroke-width="3" stroke-linecap="round" stroke-linejoin="round"/>
<path d="M19.5 10.7373V24.9374C19.5 26.7499 18.2 27.5124 16.6125 26.6374L11.7 23.8999C11.175 23.6124 10.325 23.6124 9.79999 23.8999L4.8875 26.6374C3.3 27.5124 2 26.7499 2 24.9374V10.7373C2 8.59984 3.74999 6.84985 5.88749 6.84985H15.6125C17.75 6.84985 19.5 8.59984 19.5 10.7373Z" stroke="#292D32" stroke-width="3" stroke-linecap="round" stroke-linejoin="round"/>
<path d="M27 5.88749V20.0875C27 21.9 25.7 22.6625 24.1125 21.7875L19.5 19.2125V10.7375C19.5 8.59999 17.75 6.85 15.6125 6.85H9.5V5.88749C9.5 3.74999 11.25 2 13.3875 2H23.1125C25.25 2 27 3.74999 27 5.88749Z" stroke="#292D32" stroke-width="3" stroke-linecap="round" stroke-linejoin="round"/>
</svg>
