<svg width="23" height="23" viewBox="0 0 23 23" fill="none" xmlns="http://www.w3.org/2000/svg">
<path d="M10.3328 1.26053H8.25882C3.07395 1.26053 1 3.33448 1 8.51935V14.7412C1 19.9261 3.07395 22 8.25882 22H14.4807C19.6655 22 21.7395 19.9261 21.7395 14.7412V12.6672" stroke="black" stroke-width="2" stroke-linecap="round" stroke-linejoin="round"/>
<path d="M15.5591 2.31823L7.38773 10.4896C7.07663 10.8007 6.76554 11.4125 6.70332 11.8584L6.25742 14.9797C6.09151 16.11 6.88998 16.8981 8.02028 16.7425L11.1416 16.2966C11.5771 16.2344 12.1889 15.9233 12.5104 15.6122L20.6817 7.44089C22.092 6.0306 22.7557 4.39218 20.6817 2.31823C18.6078 0.244283 16.9694 0.907947 15.5591 2.31823Z" stroke="black" stroke-width="2" stroke-miterlimit="10" stroke-linecap="round" stroke-linejoin="round"/>
<path d="M14.3873 3.4899C15.0821 5.96827 17.0212 7.90741 19.51 8.61255" stroke="black" stroke-width="2" stroke-miterlimit="10" stroke-linecap="round" stroke-linejoin="round"/>
</svg>
