<svg width="24" height="24" viewBox="0 0 24 24" fill="none" xmlns="http://www.w3.org/2000/svg">
<path d="M10.7899 18.3569L10.7899 17.4087L10.7899 10.0131L10.7899 8.30649C10.7899 6.03093 8.96594 4.03982 6.56594 4.03982C6.56594 4.03982 6.56594 4.03982 6.46994 4.03982L3.87794 4.03982C2.43794 4.03983 1.18994 5.1776 1.18994 6.69464L1.18994 16.745C1.18994 18.1673 2.43794 19.3998 3.87794 19.3998L10.7899 19.3998L10.7899 19.305L10.7899 18.3569Z" fill="white"/>
<path d="M19.688 4.03979L17.0712 4.03979C17.0712 4.03979 17.0712 4.03979 16.9743 4.03979C14.5513 4.03979 12.71 6.04327 12.71 8.33296L12.71 10.0502L12.71 17.4917L12.71 18.4457L12.71 19.3044L12.71 19.3998L19.5911 19.3998C21.1417 19.3998 22.3047 18.255 22.3047 16.7285L22.3047 6.7111C22.4016 5.18463 21.1417 4.03979 19.688 4.03979Z" fill="white"/>
</svg>
