<svg width="16" height="15" viewBox="0 0 16 15" fill="none" xmlns="http://www.w3.org/2000/svg">
<path d="M7.73467 0.502901C7.84723 0.289557 8.15277 0.289558 8.26533 0.502902L10.3764 4.50402C10.4198 4.5863 10.4989 4.64378 10.5905 4.65964L15.0482 5.43092C15.2859 5.47205 15.3803 5.76264 15.2122 5.93562L12.0592 9.17973C11.9944 9.24644 11.9642 9.33945 11.9774 9.43152L12.6213 13.9093C12.6557 14.1481 12.4085 14.3277 12.192 14.2212L8.13237 12.2251C8.0489 12.184 7.9511 12.184 7.86763 12.2251L3.80798 14.2212C3.59151 14.3277 3.34432 14.1481 3.37866 13.9093L4.02261 9.43152C4.03585 9.33944 4.00563 9.24644 3.9408 9.17973L0.787842 5.93562C0.619724 5.76264 0.714143 5.47205 0.951828 5.43092L5.40946 4.65964C5.50112 4.64378 5.58024 4.5863 5.62365 4.50402L7.73467 0.502901Z" fill="#FFC41F"/>
</svg>
